<svg xmlns="http://www.w3.org/2000/svg" width="85" height="85" viewBox="0 0 85 85">
    <g fill="none" fill-rule="evenodd" transform="translate(0 .968)">
        <rect width="84.604" height="83.546" fill="#F5F5F5" fill-rule="nonzero" rx="5"/>
        <path fill="#4481D1" d="M35.346 83.916h15.217V45.853H35.346z"/>
        <path stroke="#3E445C" stroke-width="2" d="M35.043 57.62l8.091 11.946 7.755-11.613M43.122 72.22v-2.654"/>
        <path fill="#EDEEEE" d="M37.184 78.617h11.9v-7.251h-11.9z"/>
        <path fill="#FFF" d="M13.472 59.269C5.547 74.244 4.28 83.916 4.28 83.916h31.067v-39.59c-6.64 1.515-16.795 5.346-21.874 14.943M71.485 59.269c-4.842-9.15-14.297-13.058-20.923-14.715v39.362H80.68s-1.269-9.672-9.194-24.647"/>
        <path fill="#2671CA" d="M58.407 68.012l-.63-.128c-.283-.2-.712-.505-1.201-5.699-.087-.925-.157-1.848-.224-2.74-.314-4.183-.611-8.135-2.659-11.624-2.311-3.936-5.2-3.65-5.227-3.646l-.061.007-.062-.003c-.061-.002-6.244-.279-11.564.578-4.86.783-6.322 10.235-6.336 10.33l-1.474-.211c.064-.433 1.636-10.61 7.57-11.566 5.28-.851 11.18-.626 11.825-.597.558-.039 4.002-.083 6.62 4.375 2.217 3.779 2.527 7.893 2.854 12.249.067.886.136 1.801.222 2.713.38 4.038.702 4.733.738 4.798-.073-.134-.36-.349-.732-.263l.34 1.427z"/>
        <path fill="#2671CA" d="M29.57 56.388c-.917 1.488-2.482 4.669-3.072 9.747-.322 2.77.019 4.833.562 6.325 1.022-1.32 2.012-3.4 2.505-6.663.802-5.303.394-8.096.006-9.409zm-1.045 20.623c-.082-.053-.992-.665-1.882-2.059-1.358 1.043-2.506 1.22-2.608 1.235l-.205-1.453c.08-.012 1.005-.175 2.109-1.098-.773-1.738-1.32-4.23-.921-7.667.91-7.835 3.996-11.395 4.126-11.543l.554-.624.562.617c.223.244 2.132 2.64.779 11.594-.605 4.003-1.943 6.439-3.29 7.917.747 1.27 1.532 1.815 1.602 1.86l-.826 1.221z"/>
        <path fill="#231F20" d="M24.476 75.656c0 .963-.794 1.744-1.772 1.744-.979 0-1.772-.781-1.772-1.744s.793-1.744 1.772-1.744c.978 0 1.772.78 1.772 1.744M31.81 76.986c0 .964-.794 1.744-1.773 1.744-.978 0-1.772-.78-1.772-1.744 0-.963.794-1.743 1.772-1.743.979 0 1.772.78 1.772 1.743M58.885 67.852a1.02 1.02 0 0 0-1.027 1.01c0 .558.46 1.011 1.027 1.011a1.02 1.02 0 0 0 1.027-1.01 1.02 1.02 0 0 0-1.027-1.011m0 3.487c-1.388 0-2.517-1.11-2.517-2.477 0-1.366 1.13-2.477 2.517-2.477 1.388 0 2.517 1.111 2.517 2.477 0 1.366-1.129 2.477-2.517 2.477"/>
        <path fill="#FFB0AC" d="M43.053 56.18c-4.202 0-7.609-3.353-7.609-7.488V37.46h15.217v11.232c0 4.135-3.406 7.487-7.608 7.487"/>
        <path fill="#FFC9C7" d="M52.87 36.893s-3.543 5.015-9.876 5.56c-6.332.546-9.755-5.44-9.755-5.44s-2.631-3.796-2.506-11.362c.125-7.567 2.297-8.931 2.297-8.931l8.727-3.892 9.746 3.086 2.362 8.628s5.769-1.282 4.619 3.723c0 0-.954 2.732-3.655 3.75 0 0-.506 3.281-1.96 4.878"/>
        <path fill="#3E445C" d="M56.04 12.874s-2.096-6.001-8.143-5.971c-6.046.03-4.357.375-6.083.72-1.725.345-8.302 1.009-9.613.533-1.31-.476-5.267-3.275-7.13-.073-1.861 3.202 2.293 3.826 2.293 3.826s.57.932-.671 1.235c-1.242.303-2.01 1.547-1.843 2.317.166.771.543 1.72 2.99 1.804 2.446.083.825 1.597.825 1.597s-1.105 2.94.796 3.464c1.9.523 3.574-.406 4.219-1.934.644-1.527 3.887-3.474 3.887-3.474s3.302-1.266 4.869-1.204c1.566.06 4.383-.084 5.852 1.066 1.468 1.149 2.97 2.688 3.426 4.513.455 1.825.89 4.535 1.788 4.752.897.217 3.6-.114 3.778-1.405.178-1.29.458-5.828.003-7.654-.455-1.825-1.244-4.112-1.244-4.112M42.966 37.729s2.532 0 3.128-1.027c.596-1.026 3.427-3.372 4.619-.293 1.192 3.08-1.937 6.012-1.937 6.012s-2.83 3.079-5.81 3.079h-.014c-2.98 0-5.81-3.08-5.81-3.08s-3.13-2.932-1.938-6.011c1.192-3.08 4.023-.733 4.619.293.596 1.027 3.129 1.027 3.129 1.027h.014z"/>
    </g>
</svg>
