<svg xmlns="http://www.w3.org/2000/svg" width="34" height="35" viewBox="0 0 34 35">
    <path fill="#475993" fill-rule="nonzero" d="M29.418.357H4.582A4.582 4.582 0 0 0 0 4.94v24.836a4.582 4.582 0 0 0 4.582 4.582H16.83l.02-12.15h-3.156a.745.745 0 0 1-.744-.742l-.016-3.916a.745.745 0 0 1 .745-.748h3.151v-3.784c0-4.391 2.682-6.783 6.6-6.783h3.214c.412 0 .745.334.745.745v3.303a.745.745 0 0 1-.744.744l-1.973.001c-2.13 0-2.543 1.013-2.543 2.498v3.276h4.681c.446 0 .792.39.74.833l-.464 3.916a.745.745 0 0 1-.74.657h-4.196l-.021 12.15h7.288A4.582 4.582 0 0 0 34 29.776V4.939A4.582 4.582 0 0 0 29.418.357z"/>
</svg>
