<svg xmlns="http://www.w3.org/2000/svg" xmlns:xlink="http://www.w3.org/1999/xlink" width="191" height="275" viewBox="0 0 191 275">
    <defs>
        <path id="a" d="M.622.45h55.309v111.514H.622z"/>
        <path id="c" d="M0 .512h308.558V183.62H0z"/>
        <path id="e" d="M0 .27h308.56v183.109H0z"/>
        <path id="g" d="M49.113 4.184C13.633 16.294 4.497 45.401 4.497 45.401l-2.7 8.374s-5.343 14.003 5.897 28.19c11.24 14.19 37.773 18.06 37.773 18.06s32.43 4.237 59.701 0c27.27-4.24 38.911-24.776 38.911-24.776s4.25-7.115 0-26.236c-4.249-19.122-23.157-32.718-23.157-32.718S97.673.792 70.205.794c-6.864 0-13.998.97-21.092 3.39"/>
        <linearGradient id="h" x1="0%" y1="50%" y2="50%">
            <stop offset="0%" stop-color="#FDC3BA"/>
            <stop offset="100%" stop-color="#C67262"/>
        </linearGradient>
    </defs>
    <g fill="none" fill-rule="evenodd">
        <path fill="#FBAD50" d="M85.653 85.059l14.388 31.173c-30.382 14.024-66.38.762-80.403-29.62L5.25 55.44c30.383-14.023 66.38-.762 80.404 29.62"/>
        <path fill="#CD476B" d="M172.79 118.426l-27.835 20.354c-19.953-27.287-14.007-65.583 13.28-85.535l27.836-20.353c19.952 27.287 14.006 65.582-13.281 85.534"/>
        <path fill="#8A3AB9" d="M21.978 161.049l-8.197 27.424c27.573 8.242 56.607-7.43 64.85-35.003l8.198-27.424c-27.574-8.242-56.609 7.428-64.851 35.003"/>
        <g transform="translate(81.897 .412)">
            <mask id="b" fill="#fff">
                <use xlink:href="#a"/>
            </mask>
            <path fill="#FCCC63" d="M5.914 81.241l13.656 30.723c30.89-13.73 44.8-49.902 31.069-80.792L36.983.45C6.093 14.18-7.817 50.35 5.913 81.24" mask="url(#b)"/>
        </g>
        <g transform="translate(0 90.93)">
            <mask id="d" fill="#fff">
                <use xlink:href="#c"/>
            </mask>
            <path fill="#858587" d="M308.492 65.178a7.391 7.391 0 0 0 0-1.97v-10.06l-3.146 4.306c-.128-.13-.245-.26-.382-.391l-92.536-53.87c-10.365-6.034-19.902 0-19.902 0S12.41 106.582 3.819 111.87c-.38.234-.715.48-1.029.732L0 107.504v11.104l.012-.006c.042 1.03.264 2.053.584 3.016 1.075 3.224 3.397 5.885 6.334 7.594l89.424 52.059s9.585 5.288 19.5 0c9.914-5.288 187.384-108.4 187.384-108.4s4.642-3.101 5.254-7.687v.001-.007z" mask="url(#d)"/>
        </g>
        <g transform="translate(0 79.722)">
            <mask id="f" fill="#fff">
                <use xlink:href="#e"/>
            </mask>
            <path fill="#FFF" d="M212.429 2.952l92.536 53.869c8.996 8.647-1.727 15.809-1.727 15.809s-177.47 103.112-187.384 108.399c-9.915 5.288-19.5 0-19.5 0L6.93 128.97c-2.937-1.71-5.258-4.372-6.332-7.595-1.074-3.221-1.074-7.105 3.222-9.749C12.411 106.339 192.525 2.952 192.525 2.952s9.538-6.034 19.904 0" mask="url(#f)"/>
        </g>
        <path fill="#DEDFF1" d="M23.111 187.817l101.275 58.44 159.717-90.65-101.94-59.436z"/>
        <path stroke="#E6E6E6" d="M69.64 224.624c-1.882 3.694-7.958 6.293-13.572 5.804-5.612-.489-8.637-3.88-6.754-7.575 1.882-3.694 7.959-6.293 13.573-5.804 5.612.488 8.637 3.88 6.754 7.575z"/>
        <path fill="gray" d="M221.487 169.88c-2.885-15.03-37.04-25.244-76.287-22.813-39.247 2.43-68.726 16.586-65.841 31.617 2.885 15.03 37.04 25.244 76.288 22.813 39.246-2.431 68.725-16.586 65.84-31.616"/>
        <g transform="translate(80.172 74.55)">
            <mask id="i" fill="#fff">
                <use xlink:href="#g"/>
            </mask>
            <path fill="url(#h)" d="M49.113 4.184C13.633 16.294 4.497 45.401 4.497 45.401l-2.7 8.374s-5.343 14.003 5.897 28.19c11.24 14.19 37.773 18.06 37.773 18.06s32.43 4.237 59.701 0c27.27-4.24 38.911-24.776 38.911-24.776s4.25-7.115 0-26.236c-4.249-19.122-23.157-32.718-23.157-32.718S97.673.792 70.205.794c-6.864 0-13.998.97-21.092 3.39" mask="url(#i)"/>
        </g>
        <g>
            <path fill="#D17055" d="M165.512 76.689v8.599s4.479-7.558 6.834-6.896l-6.834-1.703z"/>
            <path stroke="#D17055" stroke-linecap="round" stroke-width="2" d="M182.273 132.945s5.967 0 9.81-2.9c1.918-1.446 3.306-3.614 3.16-6.865M154.218 97.74s-13.155 1.538-18.254-6.969M134.47 98.673s1.81-3.056 6.796-3.074"/>
            <path stroke="#D17055" stroke-linecap="round" stroke-width="2" d="M187.274 83.624c-4.406 5.249-2.321 15.049-2.321 15.049s.847 2.026 1.091 5.43c.283 3.924-.233 9.68-3.771 16.268-6.606 12.302 2.5 17.384 2.5 17.384s6.044 4.187 19.061 4.523c13.018.335 13.455 9.419 9.95 16.867-3.504 7.45-4.58 6.168-4.58 6.168M179.862 85.288s2.559-.121 4.734 5.483M155.174 148.74s2.863-2 10.705-2M116.769 142.914s-6.546 4-7.636 11.092M106.223 149.824s4.4-.573 5.405-1.886M89.535 129.436s-1.669 6.883 4.506 8.319M111.496 106.92s-7.819-1.453-11.455-5.635M100.041 107.648l7.148-1.957M143.376 112.376s-3.223 4.545-13.587 4.545M111.496 111.285s1.105 5.645 4.207 9.919c1.933 2.663 4.64 4.793 8.339 4.697M116.223 128.444s.768-5.197-.52-7.24"/>
            <path fill="#D17055" d="M169.35 77.64s-10.467-3.436-18.927-2.295"/>
            <path stroke="#D17055" stroke-linecap="round" stroke-width="2" d="M149.57 76.689s-1.325 13.41 14.007 16.277c3.135.587 5.82 1.134 8.126 1.664 8.973 2.062 12.219 3.86 13.97 6.654"/>
            <path stroke="#D17055" stroke-linecap="round" stroke-width="2" d="M171.703 94.63c-18.072-.524-21.28 7.18-21.28 7.18s-8.866 11.245-13.62 27.626c-4.753 16.38-26.63 12.85-26.63 12.85s-8.916-.925-5.404-13.842c3.51-12.916 6.54-20.669 11.681-27.93 5.14-7.261 8.537-12.558 13.97-15.818s14.761-8.68 23-8.008c8.24.674 12.093 0 12.093 0M127.678 107.648s-5.591-7.95-4.074-16.877M100.677 166.607s2.222-28.417 3.317-33.875M136.803 129.436s-1.709 9.77 4.381 20.023M131.56 147.937s6.412-2.826 5.725-8.49"/>
            <path stroke="#D17055" stroke-linecap="round" stroke-width="2" d="M146.933 106.92s1.891 5.552 2.891 10.452c.333 1.633.567 3.194.6 4.452M159.429 117.714s-7.407-.585-10.298-3.34M186.045 104.103s-8.557-6.607-12.417-1.257c-3.86 5.352-5.53 5.272-11.383 4.803M171.781 114.662s-3.24-4.23 0-9.495M201.283 142.158s-11.348-2.065-15.239 7.666c-3.888 9.732-12.394 11.357-12.644 5.855M185.673 161.557s-2.255-6.728 1.304-13.62M195.255 172.153s-11.71 1.32-18.984-7.246M174.144 172.226s6.38-1.98 12.144-1.012M110.173 170.947s6.406-11.741 19.615-12.137c13.21-.395 16.68 2.259 21.58-2.436 4.899-4.696 4.287-16.927 4.287-16.927s-.72-8.183 4.232-8.283M131.56 158.81s-4.957 1.734-3.881 7.797M141.266 159.111s13.91 3.136 23.206 12.103M145.09 135.432s10.416-.35 10.49 8.26M80.159 135.43s23.114-7.386 11.016-28.76M130.42 84.696s-6.875-.7-13.97 3.333"/>
        </g>
    </g>
</svg>
