<svg xmlns="http://www.w3.org/2000/svg" width="39" height="48" viewBox="0 0 39 48">
    <g fill="none" fill-rule="evenodd">
        <path fill="#7171FE" d="M21.787 2.526c1.4-.134 2.752.146 4.096.49.996.38 2.148.25 3.05.939 9.225 3.778 12.912 16.156 7.33 25.35-.227.375-.415.791-.707 1.108-4.082 4.408-3.98 9.44-2.323 14.783.812 2.618.615 2.774-2.038 2.779-4.225.007-8.45-.04-12.674.024-1.41.022-1.964-.422-2.315-1.89-1.085-4.53-.502-6.52-7.274-5.692-4.186.511-4.898-.305-5.336-4.61-.066-.653-.162-1.303-.245-1.955.576-.585 1.355-.399 2.326-.604-1.019-.178-1.875-.016-2.513-.602-.453-.653-.817-1.4-1.376-1.943-2.272-2.211-2.353-2.24-.39-4.56 1.69-1.998 2.115-4.25 1.862-6.759-.414-4.091.33-7.865 3.08-11.083C7.888 6.488 9.82 5.22 11.9 4.137c.699-.954 1.819-.762 2.77-1.03 1.37-.209 2.742-.416 4.112-.624.989.954 1.992.814 3.005.043"/>
        <path fill="#6A4B8E" d="M3.31 32.276c.066.007.41.257.47.277.991.33 3.054.078 2.823.856-.34 1.142-1.968.047-3.042.097.008-.325-.259-.905-.25-1.23M6.62 22.345a.828.828 0 1 1-1.655 0 .828.828 0 0 1 1.656 0"/>
        <path fill="#FEC921" d="M27.89 23.911l1.865-2.71c.096-.14 0-.332-.166-.332h-.603a.207.207 0 0 1-.204-.21v-2.243a.207.207 0 0 0-.205-.21h-1.706a.207.207 0 0 0-.204.21v2.243c0 .116-.092.21-.205.21h-.602c-.166 0-.263.192-.167.331l1.864 2.711a.201.201 0 0 0 .334 0M20.443 23.911l1.864-2.71c.096-.14 0-.332-.167-.332h-.602a.207.207 0 0 1-.205-.21v-2.243a.207.207 0 0 0-.204-.21h-1.706a.207.207 0 0 0-.205.21v2.243c0 .116-.091.21-.204.21h-.603c-.165 0-.262.192-.166.331l1.864 2.711a.201.201 0 0 0 .334 0M12.994 23.911l1.865-2.71c.095-.14-.001-.332-.167-.332h-.603a.207.207 0 0 1-.204-.21v-2.243a.207.207 0 0 0-.204-.21H11.974a.207.207 0 0 0-.204.21v2.243c0 .116-.092.21-.204.21h-.603c-.166 0-.262.192-.166.331l1.864 2.711a.201.201 0 0 0 .333 0M27.89 14.808l1.865-2.711c.096-.14 0-.332-.166-.332h-.603a.207.207 0 0 1-.204-.21V9.314a.207.207 0 0 0-.205-.21h-1.706a.207.207 0 0 0-.204.21v2.243c0 .116-.092.21-.205.21h-.602c-.166 0-.263.192-.167.33l1.864 2.712a.201.201 0 0 0 .334 0M20.443 14.808l1.864-2.711c.096-.14 0-.332-.167-.332h-.602a.207.207 0 0 1-.205-.21V9.314a.207.207 0 0 0-.204-.21h-1.706a.207.207 0 0 0-.205.21v2.243c0 .116-.091.21-.204.21h-.603c-.165 0-.262.192-.166.33l1.864 2.712a.201.201 0 0 0 .334 0M12.994 14.808l1.865-2.711c.095-.14-.001-.332-.167-.332h-.603a.207.207 0 0 1-.204-.21V9.314a.207.207 0 0 0-.204-.21H11.974a.207.207 0 0 0-.204.21v2.243c0 .116-.092.21-.204.21h-.603c-.166 0-.262.192-.166.33l1.864 2.712a.201.201 0 0 0 .333 0M27.89 5.704l1.865-2.71c.096-.14 0-.332-.166-.332h-.603a.207.207 0 0 1-.204-.21V.21a.207.207 0 0 0-.205-.21h-1.706a.207.207 0 0 0-.204.21v2.242c0 .116-.092.21-.205.21h-.602c-.166 0-.263.192-.167.331l1.864 2.711a.2.2 0 0 0 .334 0M20.443 5.704l1.864-2.71c.096-.14 0-.332-.167-.332h-.602a.207.207 0 0 1-.205-.21V.21A.207.207 0 0 0 21.13 0h-1.706a.207.207 0 0 0-.205.21v2.242c0 .116-.091.21-.204.21h-.603c-.165 0-.262.192-.166.331l1.864 2.711a.2.2 0 0 0 .334 0M12.994 5.704l1.865-2.71c.095-.14-.001-.332-.167-.332h-.603a.207.207 0 0 1-.204-.21V.21a.207.207 0 0 0-.204-.21H11.974a.207.207 0 0 0-.204.21v2.242c0 .116-.092.21-.204.21h-.603c-.166 0-.262.192-.166.331l1.864 2.711a.2.2 0 0 0 .333 0"/>
    </g>
</svg>
