<svg xmlns="http://www.w3.org/2000/svg" xmlns:xlink="http://www.w3.org/1999/xlink" width="39" height="46" viewBox="0 0 39 46">
    <defs>
        <path id="a" d="M0 .22h38.98v45.342H0z"/>
    </defs>
    <g fill="none" fill-rule="evenodd">
        <g transform="translate(0 .218)">
            <mask id="b" fill="#fff">
                <use xlink:href="#a"/>
            </mask>
            <path fill="#7171FE" d="M28.994 1.695c-.904-.685-2.057-.557-3.056-.935a31.532 31.532 0 0 0-.654-.158L25.285.6l-.024-.005C24.136.337 23 .161 21.833.272 19.657.191 18.823.23 18.823.23L14.7.85c-.953.268-2.075.077-2.776 1.027-2.084 1.078-4.02 2.342-5.572 4.147-2.756 3.205-3.5 6.963-3.087 11.038.254 2.498-.171 4.742-1.865 6.731-1.967 2.312-1.886 2.34.391 4.542.56.542.924 1.285 1.379 1.936.639.583 1.497.422 2.518.599-.973.204-1.753.018-2.331.601.083.649.18 1.297.246 1.947.439 4.287 1.151 5.1 5.347 4.591 6.786-.825 6.202 1.158 7.289 5.67.352 1.461.907 1.904 2.32 1.882 4.233-.064 8.467-.017 12.7-.025 2.66-.004 2.856-.16 2.043-2.767-1.66-5.322-1.762-10.333 2.328-14.723.293-.315.481-.73.71-1.103 5.592-9.157 1.898-21.484-7.347-25.248" mask="url(#b)"/>
        </g>
        <path fill="#6A4B8E" d="M3.1 30.16c.072.01.451.321.517.346 1.089.41 3.356.097 3.101 1.066-.373 1.425-2.162.06-3.343.122.01-.405-.284-1.128-.274-1.533M6.944 19.921a.877.877 0 1 1-1.753 0 .877.877 0 0 1 1.753 0"/>
        <path stroke="#1A1A1A" stroke-width=".5" d="M30.974 16.554c-1.957 2.85-6.488 3.137-10.12.643-3.631-2.495-4.989-6.826-3.032-9.676 1.958-2.85 6.488-3.137 10.12-.643 3.632 2.495 4.99 6.827 3.032 9.676z"/>
        <path stroke="#1A1A1A" stroke-width=".5" d="M27.425 9.228c1.408 3.181-.293 7.018-3.8 8.57-3.505 1.551-7.489.23-8.896-2.95-1.408-3.182.293-7.018 3.799-8.57 3.506-1.552 7.49-.231 8.897 2.95z"/>
        <path stroke="#1A1A1A" stroke-width=".5" d="M30.71 13.189c-.848 2.737-5.315 3.786-9.978 2.342-4.662-1.445-7.755-4.834-6.907-7.572.848-2.737 5.315-3.786 9.977-2.342 4.663 1.445 7.755 4.834 6.908 7.572z"/>
        <path stroke="#1A1A1A" stroke-width=".5" d="M28.679 3.959c1.25 2.166-1.14 5.887-5.338 8.31-4.198 2.425-8.616 2.634-9.866.468s1.14-5.887 5.337-8.311c4.199-2.424 8.616-2.633 9.867-.467z"/>
        <path stroke="#1A1A1A" stroke-width=".5" d="M29.818 9.001c0 3.213-3.745 5.816-8.364 5.816-4.62 0-8.364-2.603-8.364-5.816 0-3.212 3.745-5.816 8.364-5.816 4.62 0 8.364 2.604 8.364 5.816z"/>
        <path stroke="#1A1A1A" stroke-width=".5" d="M25.844 4.416c2.92-.335 5.631 2.41 6.057 6.13.426 3.72-1.594 7.007-4.513 7.342-2.92.334-5.631-2.41-6.057-6.13-.426-3.721 1.594-7.008 4.513-7.342z"/>
        <path stroke="#1A1A1A" stroke-width=".5" d="M23.126 10.778C24.38 8.1 27.79 7.05 30.74 8.434c2.951 1.383 4.326 4.674 3.072 7.351-1.255 2.677-4.664 3.727-7.615 2.344-2.95-1.383-4.326-4.674-3.071-7.351z"/>
        <path stroke="#1A1A1A" stroke-width=".5" d="M23.834 6.463c2.228-.983 5.392 1.296 7.067 5.091 1.674 3.795 1.226 7.67-1.002 8.653-2.229.983-5.392-1.297-7.067-5.092-1.675-3.795-1.227-7.67 1.002-8.652z"/>
        <path stroke="#1A1A1A" stroke-width=".5" d="M19.048 12.913c.691-2.01 4.41-2.553 8.306-1.213 3.897 1.34 6.495 4.056 5.803 6.066-.691 2.01-4.41 2.553-8.306 1.213-3.896-1.34-6.494-4.056-5.803-6.066z"/>
        <path stroke="#1A1A1A" stroke-width=".5" d="M21.646 9.37c2.06-1.792 5.818-.843 8.395 2.12 2.576 2.961 2.996 6.815.936 8.607-2.06 1.791-5.819.842-8.396-2.12-2.576-2.962-2.995-6.815-.935-8.607z"/>
        <path stroke="#1A1A1A" stroke-width=".5" d="M13.73 8.177c2.495-2.393 6.99-1.755 10.039 1.425 3.05 3.18 3.5 7.697 1.005 10.09s-6.99 1.755-10.04-1.425c-3.05-3.18-3.5-7.698-1.004-10.09z"/>
        <path stroke="#1A1A1A" stroke-width=".5" d="M15.717 16.07c-.732-3.4 1.712-6.811 5.46-7.619 3.749-.807 7.38 1.295 8.114 4.695.732 3.4-1.712 6.812-5.46 7.62-3.749.808-7.38-1.294-8.114-4.695z"/>
        <path stroke="#1A1A1A" stroke-width=".5" d="M13.305 11.526c1.386-2.508 5.973-2.628 10.245-.267 4.273 2.36 6.613 6.307 5.227 8.815-1.386 2.508-5.973 2.628-10.245.268-4.272-2.361-6.612-6.307-5.227-8.816z"/>
        <path stroke="#1A1A1A" stroke-width=".5" d="M13.42 20.976c-.785-2.375 2.311-5.533 6.914-7.055 4.603-1.52 8.97-.829 9.756 1.546.784 2.375-2.311 5.533-6.914 7.054-4.603 1.522-8.97.83-9.756-1.545z"/>
        <path stroke="#1A1A1A" stroke-width=".5" d="M13.329 15.807c.652-3.145 4.847-4.935 9.37-3.997 4.523.938 7.66 4.248 7.009 7.393-.653 3.146-4.848 4.935-9.37 3.998-4.524-.938-7.662-4.248-7.01-7.394z"/>
        <path stroke="#1A1A1A" stroke-width=".5" d="M16.288 21.104c-2.926-.265-5.024-3.503-4.686-7.233.338-3.728 2.984-6.537 5.91-6.272 2.926.265 5.024 3.504 4.686 7.233-.337 3.73-2.984 6.537-5.91 6.272z"/>
        <path stroke="#1A1A1A" stroke-width=".5" d="M20.242 15.426c-1.772 2.367-5.323 2.702-7.931.75-2.61-1.954-3.288-5.456-1.516-7.823 1.772-2.366 5.323-2.701 7.932-.749 2.608 1.953 3.286 5.455 1.515 7.822z"/>
        <path stroke="#1A1A1A" stroke-width=".5" d="M18.673 19.508c-2.382.51-5.017-2.364-5.886-6.42-.87-4.057.356-7.759 2.737-8.269 2.382-.51 5.017 2.364 5.887 6.42.869 4.056-.357 7.758-2.738 8.269z"/>
        <path stroke="#1A1A1A" stroke-width=".5" d="M24.668 14.163c-1.085 1.828-4.837 1.605-8.38-.498-3.543-2.103-5.535-5.29-4.45-7.118 1.085-1.828 4.837-1.605 8.38.498 3.543 2.104 5.535 5.29 4.45 7.118z"/>
        <path stroke="#1A1A1A" stroke-width=".5" d="M21.405 17.105c-2.38 1.337-5.868-.356-7.79-3.78-1.921-3.422-1.55-7.281.831-8.617 2.38-1.337 5.869.355 7.79 3.779 1.922 3.423 1.55 7.282-.831 8.618z"/>
    </g>
</svg>
