<svg xmlns="http://www.w3.org/2000/svg" xmlns:xlink="http://www.w3.org/1999/xlink" width="39" height="39" viewBox="0 0 39 39">
    <defs>
        <path id="a" d="M.03.79h38.1v38.099H.03z"/>
        <path id="c" d="M0 .79h38.16v37.838H0z"/>
    </defs>
    <g fill="none" fill-rule="evenodd">
        <g transform="translate(0 -.679)">
            <mask id="b" fill="#fff">
                <use xlink:href="#a"/>
            </mask>
            <path fill="#FEFEFE" d="M38.13 19.84c0 10.52-8.53 19.05-19.05 19.05C8.56 38.89.03 30.36.03 19.84.03 9.319 8.56.79 19.08.79c10.52 0 19.05 8.529 19.05 19.05" mask="url(#b)"/>
        </g>
        <g transform="translate(0 -.679)">
            <mask id="d" fill="#fff">
                <use xlink:href="#c"/>
            </mask>
            <path fill="#1C6F4E" d="M32.244 27.82c-.824-.044-1.483-.471-2.123-.934-.12-.085-.258-.175-.254-.354.027-1.109-.585-1.953-1.28-2.679-1.237-1.291-1.423-2.669-.842-4.324.696-1.976.342-3.855-.932-5.536-.143-.189-.241-.448-.633-.498.162.281.296.507.42.737.8 1.471 1.038 3.007.54 4.629-.112.363-.198.734-.328 1.092-.498 1.389-.297 2.64.692 3.755.22.246.392.532.608.78 1.064 1.233 1.17 2.577.342 3.936-.414.681-.212 1.025.353 1.4.77.511 1.56.95 2.497 1.051.42.045.764-.03.891-.497.135-.494.438-.462.812-.28.495.24.925.607 1.188 1.043.298.492-.322.745-.557 1.082-.276.396-.395-.049-.553-.174-.278-.22-.525-.477-.808-.688-.214-.161-.435-.248-.602.108-.115.249-.248.449.11.6.112.049.211.139.307.22.802.69.74 1.257-.2 1.756-.445.235-.41-.316-.651-.422-.258-.112-.345-.768-.801-.247-.165.187-.234.307-.024.557.695.828.677.843-.21 1.473-.144.103-.294.198-.549.37-.355-1.898-2.419-2.933-2.295-5.097-.45.53-.45 1.085-.316 1.659.152.654.518 1.208.861 1.772.29.476.593.945.774 1.479.21.624-.065 1.073-.71 1.2-.236.046-.24-.076-.27-.231-.221-1.17-.838-2.174-1.384-3.2-.637-1.197-.596-2.317.15-3.443.365-.549.687-1.126 1.011-1.7.695-1.232.63-2.42-.23-3.555-.275-.365-.53-.748-.833-1.088-.982-1.107-1.127-2.329-.591-3.681.439-1.112.8-2.246.706-3.473-.116-1.514-.743-2.776-1.836-3.815-.099-.093-.191-.261-.403-.143 1.58 1.974 1.843 4.126.87 6.448-.184.443-.327.905-.465 1.366-.366 1.235-.15 2.357.677 3.356.227.273.44.556.657.839 1.162 1.515 1.21 2.379.215 4.029-.341.564-.704 1.115-1.042 1.683-.62 1.039-.672 2.097-.107 3.185.467.9.962 1.792 1.342 2.727.503 1.233.385 1.385-1.02 1.749-.012-1.489-.745-2.72-1.435-3.951-.798-1.422-.727-2.738.215-4.057a17.36 17.36 0 0 0 1.15-1.88c.583-1.089.484-2.15-.243-3.149-.284-.389-.57-.779-.883-1.145-.976-1.146-1.086-2.418-.564-3.78.255-.661.583-1.297.808-1.968.721-2.141.307-4.042-1.282-5.669-.291-.144-.28.003-.206.212 1.126 2.024 1.12 4.055.072 6.108-.23.45-.41.928-.585 1.403-.521 1.42-.389 2.765.615 3.93 1.716 1.993 1.785 3.036.112 5.406-.265.372-.497.768-.722 1.164-.55.97-.61 1.978-.157 2.997.327.741.693 1.466 1.039 2.2.27.576.499 1.167.563 1.806.085.85-.27 1.194-1.123 1.156-.282-.013-.265-.16-.252-.342.085-1.349-.366-2.572-1.035-3.684-1.13-1.88-.975-3.586.389-5.265.394-.486.691-1.062.98-1.624.486-.942.384-1.868-.218-2.731-.606-.867-1.379-1.628-1.544-2.756-.048-.329-.368-.358-.678-.251a4.03 4.03 0 0 1-2.689.003c-.388-.132-.649-.049-.724.387-.15.861-.667 1.519-1.186 2.181-1.054 1.349-1.117 2.3-.234 3.769.404.674.853 1.321 1.279 1.983.704 1.091.79 2.214.198 3.39a43.33 43.33 0 0 0-.99 2.138c-.3.68-.433 1.398-.468 2.143-.01.216.304.736-.285.623-.421-.081-1.121.105-1.105-.715.013-.696.192-1.354.483-1.98.32-.69.642-1.38.988-2.058.677-1.325.57-2.587-.251-3.812-.383-.568-.768-1.136-1.114-1.726-.853-1.448-.788-2.377.226-3.714.2-.262.404-.52.606-.782.86-1.112 1.066-2.34.587-3.658-.277-.762-.614-1.5-.928-2.249-.853-2.04-.616-3.962.628-5.775.07-.104.137-.21.2-.318.009-.013-.009-.043-.013-.066-1.436.717-2.898 3.375-2.002 5.987.254.742.585 1.458.87 2.19.53 1.368.387 2.635-.583 3.772l-.047.06c-1.866 2.424-1.89 3.075-.227 5.616.221.339.435.683.644 1.032.58.968.634 1.96.127 2.975-.296.588-.588 1.18-.891 1.766-.432.84-.782 1.706-.758 2.667-.073.018-.127.05-.165.038-1.268-.404-1.372-.561-.858-1.81.356-.864.81-1.69 1.254-2.516.634-1.183.588-2.33-.11-3.464-.412-.67-.839-1.33-1.23-2.013-.632-1.104-.572-2.18.202-3.202.307-.404.604-.816.928-1.205.876-1.053 1.038-2.227.628-3.503a46.525 46.525 0 0 0-.553-1.577c-.685-1.881-.56-3.684.507-5.4.065-.101.116-.213.177-.324-.304-.19-.392.078-.5.206-1.414 1.693-1.933 3.663-1.08 5.684.945 2.235.76 4.06-.942 5.828-1.097 1.141-1.06 2.515-.247 3.862.38.63.747 1.267 1.122 1.9.505.85.54 1.706.14 2.618-.537 1.225-1.372 2.323-1.573 3.692-.031.216-.201.246-.33.137-.277-.233-.875-.168-.767-.771.09-.507.336-.953.59-1.393.305-.527.633-1.043.91-1.584.293-.578.425-1.193.214-1.84-.2-.156-.188.075-.264.145-.153.765-.54 1.415-.998 2.03-.545.733-1.094 1.464-1.34 2.404-.18-.114-.333-.201-.476-.301-.916-.639-.94-.66-.247-1.519.261-.325.025-.443-.106-.628-.203-.283-.356-.044-.484.08-.25.246-.475.518-.71.78-.029-.014-.056-.02-.074-.036-1.099-1.025-1.492-.827.011-2.046.294-.24.199-.361.091-.6-.155-.35-.381-.28-.6-.12-.264.193-.494.433-.753.637-.194.15-.361.683-.656.173-.209-.36-1.104-.6-.334-1.242.25-.211.469-.47.738-.656.44-.303.9-.559 1.143.237.109.357.418.404.743.376 1.221-.105 2.198-.717 3.105-1.483.21-.175.14-.332.04-.53a20.66 20.66 0 0 1-.51-1.103c-.417-.964-.325-1.882.28-2.74.366-.518.727-1.042 1.133-1.529.801-.964.966-2.034.614-3.212-.107-.363-.203-.732-.32-1.093-.553-1.705-.436-3.347.433-4.928.065-.12.216-.23.122-.411-.246-.115-.302.116-.39.237-1.102 1.53-1.6 3.257-.958 5.034.725 2 .465 3.62-1.042 5.119-.572.567-.977 1.305-.967 2.174.002.203-.085.336-.235.447-.636.47-1.291.898-2.115.952-.586.21-.918.032-.934-.618-.08-.528-.366-.632-.86-.488-.506.148-.9.454-1.301.764-.933.72-1.058.692-1.47-.368-.07-.182-.21-.356-.141-.608.673-.044 1.237-.369 1.775-.762.391-.286.811-.532 1.3-.6.303-.043.416-.154.428-.48.03-.846-.049-.921-.885-.668-.467.141-.867.414-1.278.664-.303.183-.612.37-.942.488-.293.107-.69.284-.902-.04-.23-.353-.304-.803-.309-1.238-.002-.182.175-.15.29-.146.86.032 1.56-.382 2.26-.801.435-.261.875-.552 1.388-.593.469-.037.626-.243.706-.692.16-.9.164-.918-.72-.722-.631.141-1.174.47-1.726.78-.577.325-1.163.611-1.849.646-.442.022-.659-.065-.736-.584-.093-.627.006-.853.688-.827.75.026 1.423-.326 2.075-.678.827-.447 1.648-.903 2.639-.869.27.01 1.025-1.279.909-1.502-.09-.17-.266-.108-.405-.118-.949-.068-1.795.256-2.612.691-.808.43-1.62.835-2.551.947-.627.075-.837-.112-.799-.778.472-8.44 7.009-15.906 15.326-17.469 10.59-1.991 20.394 4.623 22.517 15.19.16.797.21 1.608.303 2.415.07.62-.21.68-.692.643-.91-.072-1.703-.458-2.494-.87-1.454-.76-2.057-.885-3.236-.68.2.444.397.877.586 1.311.087.197.24.239.432.229.878-.041 1.626.333 2.365.738.829.453 1.673.872 2.654.82.426-.024.388.245.336.49-.071.34.206.874-.491.9-.774.027-1.437-.268-2.078-.643-.66-.385-1.326-.746-2.098-.86-.38-.056-.554-.02-.434.465.138.564.202 1.033.973 1.077.544.03 1.017.43 1.495.716.572.341 1.163.657 1.85.615.493-.03.448.17.364.536-.262 1.126-.55 1.274-1.59.727-.692-.363-1.294-.912-2.095-1.052-.202-.036-.533-.192-.573.108-.046.337-.21.965.14 1.015 1.287.179 2.047 1.455 3.364 1.447-.006.109 0 .16-.014.208-.489 1.56-.56 1.583-1.869.585-.141-.108-.283-.217-.437-.307-.917-.538-1.244-.424-1.535.53-.125.494-.477.41-.829.324" mask="url(#d)"/>
        </g>
        <path fill="#1C6F4E" d="M5.032 26.515c.13.48.428.705.934.619-.51.096-1.008.199-.612.91.116.209.022.332-.195.376-.656.135-1.11.585-1.569 1.02-.274.26-.486.343-.682-.072a3.681 3.681 0 0 0-.35-.585c-.182-.254-.194-.407.137-.566.763-.363 1.261-1.188 2.214-1.248.241-.015.054-.305.123-.454M32.244 27.141c.324.016.62-.046.829-.324.898.278 1.605.873 2.374 1.375.324.211.374.325.16.605-.092.12-.18.248-.237.386-.226.541-.502.616-.912.157-.268-.3-.567-.613-.956-.729-.554-.164-.85-.336-.605-1.023.203-.564-.505-.177-.653-.447"/>
        <path fill="#DAE9E3" d="M22.979 11.776c-.147-.184-.294-.367-.48-.602.41-.062.537.181.685.39l-.205.212"/>
        <path fill="#D5E6DF" d="M10.828 30.63c-.024-.181-.07-.364.038-.548.18.082.216.236.225.404l-.263.144"/>
        <path fill="#FEFEFE" d="M10.328 7.598c1.295.072 2.348.498 3.374 1.242-.205-1.154-.842-2.044-1.39-3.081 1.677.153 3.046.771 4.272 1.894.266-.679.51-1.31.762-1.94.11-.279-.063-.419-.238-.573-.47-.414-.934-.834-1.47-1.316.336-.05.565-.137.778-.108 1.325.175 2.076-.403 2.348-1.69.044-.206.115-.446.375-.624.249.58.518 1.138.73 1.716.145.395.378.534.791.536.58.003 1.159.073 1.933.127-.585.521-1.033.943-1.507 1.33-.276.223-.362.428-.206.772.249.55.446 1.125.694 1.766 1.202-1.096 2.576-1.721 4.282-1.903-.557 1.047-1.148 1.973-1.49 3.134 1.086-.744 2.153-1.21 3.49-1.289-.797 1.121-1.5 2.168-2.032 3.318-.21.458-.52.148-.764.035a14.143 14.143 0 0 0-5.896-1.3c-2.105-.01-4.134.398-6.04 1.312-.454.217-.707.21-.924-.307-.453-1.073-1.156-2.008-1.872-3.051"/>
        <path fill="#FEFEFE" d="M15.51 12.904c.278-1.313 1.647-2.287 3.279-2.383 1.844-.108 3.393.8 3.91 2.35-1.051-.228-2.161-.414-2.84.559-.447.64-.316 1.489.092 2.469.27-1.077.897-.96 1.555-.771.092.026.202-.004.302-.02.91-.155 1.141.045 1 .974-.246 1.628-.989 2.977-2.376 3.912-.775.524-1.626.63-2.444.136-1.689-1.02-2.563-2.546-2.617-4.522-.015-.54.181-.85.794-.574.338.154.696.108 1.047.028.148-.033.3-.059.438-.117.272-.112.552.55.787.017.256-.582.003-1.583-.436-1.871-.78-.512-1.623-.467-2.49-.187M27.356 12.246c1.398-.558 2.68-.435 3.9.18.528.266.635.156.772-.366.257-.977.809-1.798 1.608-2.433.113-.09.229-.23.4-.14.139.074.089.223.084.34-.092 2.626 1.221 4.644 2.814 6.544.19.227.452.404.56.757-.597.218-1.15.058-1.684-.147-.613-.235-1.206-.528-1.812-.785-.861-.367-1.756-.508-2.679-.31-.225.05-.377.055-.518-.15-.925-1.346-2.09-2.461-3.445-3.49M10.823 12.256c-1.38 1.009-2.525 2.146-3.463 3.483-.116.165-.233.217-.446.165-1.231-.304-2.348.083-3.444.598-.869.407-1.73.865-2.763.674-.06-.348.246-.476.411-.668 1.668-1.94 3.012-4.02 2.945-6.72-.012-.475.22-.36.458-.17.974.776 1.516 1.812 1.798 3.067 1.427-.732 2.875-1.108 4.504-.429"/>
        <path fill="#EEF5F2" d="M21.916 13.355c.19.018.424-.003.611.151.15.126.206.28.116.466-.073.155-.174.234-.353.14-.404-.213-.827-.126-1.25-.072-.111.014-.25.12-.327-.04-.084-.177.059-.277.178-.363.295-.213.636-.277 1.025-.282"/>
        <path fill="#F0F6F3" d="M17.624 14.117c-.557-.08-1.102-.254-1.642-.042-.22.087-.384.14-.46-.145-.057-.225.026-.385.234-.494.552-.29 1.483.038 1.868.681"/>
        <path fill="#077346" d="M17.118 8.217c.575-.441 1.15-.882 1.722-1.325.153-.117.288-.162.467-.02.567.45 1.147.883 1.703 1.395-1.3-.082-2.578-.122-3.892-.05"/>
        <path fill="#097448" d="M20.632 17.781c-1.133 1.55-2.11 1.537-3.004.031.997.154 1.936.174 3.004-.03"/>
        <path fill="#157A4F" d="M18.044 16.78c.638-.334 1.209-.148 1.758-.16.05-.001.136.084.15.142.038.163-.113.195-.217.249-.572.296-1.088.166-1.691-.231"/>
    </g>
</svg>
