<svg xmlns="http://www.w3.org/2000/svg" width="34" height="29" viewBox="0 0 34 29">
    <path fill="#03A9F4" fill-rule="nonzero" d="M34 3.678a14.38 14.38 0 0 1-4.016 1.116A7.01 7.01 0 0 0 33.05.889a13.817 13.817 0 0 1-4.42 1.71A6.942 6.942 0 0 0 23.54.363c-3.86 0-6.966 3.175-6.966 7.067 0 .56.047 1.099.161 1.611C10.94 8.755 5.812 5.94 2.367 1.651a7.187 7.187 0 0 0-.954 3.571 7.1 7.1 0 0 0 3.096 5.872 6.813 6.813 0 0 1-3.149-.87v.077c0 3.433 2.416 6.285 5.584 6.942a6.869 6.869 0 0 1-1.827.233c-.446 0-.897-.026-1.32-.121.903 2.798 3.466 4.855 6.513 4.922a13.887 13.887 0 0 1-8.642 3.013c-.571 0-1.12-.026-1.668-.097a19.433 19.433 0 0 0 10.693 3.17c12.827 0 19.839-10.769 19.839-20.104 0-.312-.01-.614-.026-.913C31.89 6.351 33.053 5.108 34 3.678z"/>
</svg>
